<svg xmlns="http://www.w3.org/2000/svg" viewBox="0 0 24 24" id="excel">
	<path fill="none" stroke="#00aa00" stroke-linecap="round" stroke-linejoin="round" d="M13.5.5.5 3v18l13 2.5zM13.5 3.5h10v17h-10">
	</path>
	<path fill="none" stroke="#00aa00" stroke-linecap="round" stroke-linejoin="round" d="M13.5 5.5h3v1h-3zM18.5 5.5h3v1h-3zM13.5 8.5h3v1h-3zM18.5 8.5h3v1h-3zM13.5 11.5h3v1h-3zM18.5 11.5h3v1h-3zM13.5 14.5h3v1h-3zM18.5 14.5h3v1h-3zM13.5 17.5h3v1h-3zM18.5 17.5h3v1h-3zM4.5 8.5l4 8M4.5 16.5l4-8">
	</path>
</svg>
